<svg width="24" height="24" viewBox="0 0 24 24" fill="none" xmlns="http://www.w3.org/2000/svg">
							<path d="M21.7573 17.3296C22.6228 15.667 23.0491 13.8107 22.9957 11.9371C22.9422 10.0634 22.4109 8.23444 21.4521 6.62379C20.4932 5.01315 19.1387 3.67425 17.5171 2.73414C15.8954 1.79403 14.0605 1.28391 12.1863 1.25219C10.3121 1.22046 8.46094 1.66819 6.80841 2.55287C5.15588 3.43756 3.75684 4.72985 2.74405 6.30712C1.73126 7.88439 1.13832 9.6943 1.0215 11.5651C0.904689 13.4359 1.26787 15.3055 2.07659 16.9965" stroke="#E09ABF" stroke-width="1.25" stroke-linecap="round" stroke-linejoin="round"></path>
							<path d="M13.2624 17.5638C10.1249 17.2816 9.49988 18.0115 9.49988 18.3452C9.49988 18.8449 10.6191 19.2502 11.9999 19.2502C13.3806 19.2502 14.4999 18.8449 14.4999 18.3452C14.4999 18.012 14.0027 17.721 13.2624 17.5638Z" fill="#E09ABF" stroke="#E09ABF" stroke-width="1.25" stroke-linecap="round" stroke-linejoin="round"></path>
							<path d="M11.9999 17.7764C12.1384 17.7757 12.2503 17.6468 12.2869 17.4869C13.148 13.7238 16.3054 12.5659 16.3054 9.09229C16.3054 6.68535 14.3679 4.75024 11.9999 4.75024C9.6318 4.75024 7.6943 6.68535 7.6943 9.09229C7.6943 12.5659 10.8517 13.7238 11.7128 17.4869C11.7494 17.6468 11.8614 17.7757 11.9999 17.7764Z" stroke="#E09ABF" stroke-width="1.25" stroke-linecap="round" stroke-linejoin="round"></path>
							<path d="M10.3063 15.2514C7.53745 15.6303 5.49988 16.9164 5.49988 18.444C5.49988 20.2697 8.41013 21.7501 11.9999 21.7501C15.5896 21.7501 18.4999 20.2697 18.4999 18.444C18.4999 16.9145 16.4581 15.628 13.6854 15.2501" stroke="#E09ABF" stroke-width="1.25" stroke-linecap="round" stroke-linejoin="round"></path>
						</svg>